<?xml version="1.0" encoding="utf-8"?><!-- Uploaded to: SVG Repo, www.svgrepo.com, Generator: SVG Repo Mixer Tools -->
<svg version="1.1" id="Uploaded to svgrepo.com" xmlns="http://www.w3.org/2000/svg" xmlns:xlink="http://www.w3.org/1999/xlink" 
	 width="800px" height="800px" viewBox="0 0 32 32" xml:space="preserve">
<style type="text/css">
	.feather_een{fill:#0B1719;}
	.st0{fill:#0B1719;}
</style>
<path class="feather_een" d="M30,24h-1v-3c0-7.011-5.554-12.71-12.5-12.975V7.929C17.361,7.706,18,6.931,18,6c0-1.105-0.895-2-2-2
	c-1.105,0-2,0.895-2,2c0,0.931,0.639,1.706,1.5,1.929v0.096C8.554,8.29,3,13.989,3,21v3H2c-0.552,0-1,0.448-1,1c0,1.657,1.343,3,3,3
	h24c1.657,0,3-1.343,3-3C31,24.448,30.552,24,30,24z M15,6c0-0.551,0.449-1,1-1s1,0.449,1,1s-0.449,1-1,1S15,6.551,15,6z M4,21
	C4,14.383,9.383,9,16,9s12,5.383,12,12v3H4V21z M28,27H4c-1.103,0-2-0.897-2-2h28C30,26.103,29.103,27,28,27z M10,13
	c-1.105,0-2,0.895-2,2s0.895,2,2,2c1.105,0,2-0.895,2-2S11.105,13,10,13z M10,16c-0.551,0-1-0.449-1-1s0.449-1,1-1s1,0.449,1,1
	S10.551,16,10,16z"/>
</svg>